HIERARCHY
ROOT Hips
{
  OFFSET 90.7885 88.945 -76.2838
  CHANNELS 6 Xposition Yposition Zposition Zrotation Xrotation Yrotation
  JOINT LeftUpLeg
  {
    OFFSET 8.64259 1.95398 -2.38835
    CHANNELS 3 Zrotation Xrotation Yrotation
    JOINT LeftLeg
    {
      OFFSET 43.7702 0 0
      CHANNELS 3 Zrotation Xrotation Yrotation
      JOINT LeftFoot
      {
        OFFSET 40.6238 0 0
        CHANNELS 3 Zrotation Xrotation Yrotation
        JOINT LeftToeBase
        {
          OFFSET 12.7242 0 0
          CHANNELS 3 Zrotation Xrotation Yrotation
          End Site
          {
            OFFSET 0 0 0
          }
        }
      }
    }
  }
  JOINT RightUpLeg
  {
    OFFSET -8.2249 1.95398 -2.59336
    CHANNELS 3 Zrotation Xrotation Yrotation
    JOINT RightLeg
    {
      OFFSET 43.5653 0 0
      CHANNELS 3 Zrotation Xrotation Yrotation
      JOINT RightFoot
      {
        OFFSET 40.6238 0 0
        CHANNELS 3 Zrotation Xrotation Yrotation
        JOINT RightToeBase
        {
          OFFSET 12.7242 0 0
          CHANNELS 3 Zrotation Xrotation Yrotation
          End Site
          {
            OFFSET 0 0 0
          }
        }
      }
    }
  }
  JOINT Spine
  {
    OFFSET 0.165834 0.87714 6.61349
    CHANNELS 3 Zrotation Xrotation Yrotation
    JOINT Spine1
    {
      OFFSET 7.38963 1.71661e-005 0
      CHANNELS 3 Zrotation Xrotation Yrotation
      JOINT Spine2
      {
        OFFSET 11.9445 1.14441e-005 0
        CHANNELS 3 Zrotation Xrotation Yrotation
        JOINT Spine3
        {
          OFFSET 14.7254 4.19617e-005 0
          CHANNELS 3 Zrotation Xrotation Yrotation
          JOINT Spine4
          {
            OFFSET 10.9679 0 0
            CHANNELS 3 Zrotation Xrotation Yrotation
            JOINT RightShoulder
            {
              OFFSET 2.46616 -1.6653 3.69651
              CHANNELS 3 Zrotation Xrotation Yrotation
              JOINT RightArm
              {
                OFFSET 13.0012 0 0
                CHANNELS 3 Zrotation Xrotation Yrotation
                JOINT RightForeArm
                {
                  OFFSET 28.7848 1.52588e-005 0
                  CHANNELS 3 Zrotation Xrotation Yrotation
                  JOINT RightHand
                  {
                    OFFSET 26.5688 1.52588e-005 0
                    CHANNELS 3 Zrotation Xrotation Yrotation
                    End Site
                    {
                      OFFSET 0 0 0
                    }
                  }
                }
              }
            }
            JOINT LeftShoulder
            {
              OFFSET 2.38034 -1.29275 -3.7523
              CHANNELS 3 Zrotation Xrotation Yrotation
              JOINT LeftArm
              {
                OFFSET 16.3182 6.10352e-005 0
                CHANNELS 3 Zrotation Xrotation Yrotation
                JOINT LeftForeArm
                {
                  OFFSET 27.0901 0 0
                  CHANNELS 3 Zrotation Xrotation Yrotation
                  JOINT LeftHand
                  {
                    OFFSET 24.5451 1.52588e-005 0
                    CHANNELS 3 Zrotation Xrotation Yrotation
                    End Site
                    {
                      OFFSET 0 0 0
                    }
                  }
                }
              }
            }
            JOINT Neck
            {
              OFFSET 5.0226 -0.0266342 0
              CHANNELS 3 Zrotation Xrotation Yrotation
              JOINT Head
              {
                OFFSET 6.69363 2.86102e-005 0
                CHANNELS 3 Zrotation Xrotation Yrotation
                End Site
                {
                  OFFSET 0 0 0
                }
              }
            }
          }
        }
      }
    }
  }
}
MOTION
Frames:	6
Frame Time:	0.0416667
-2.44722 97.2306 92.7059 -138.478 -81.2828 -139.44 -178.332 4.15411 84.572 -28.956 16.4438 -0.706777 76.8708 7.58419 1.77836 8.7197 0.505052 2.38098 177.927 17.1689 86.5197 -52.7211 -3.15543 -4.84234 75.546 -9.06611 -4.77883 15.4093 -1.44228 5.04318 0.410702 8.04561 -89.9533 10.7828 0.839413 0.0150804 -0.887834 0.839264 -0.021892 -23.425 0.796065 0.266673 -3.41235 0.796074 0.266681 88.8061 -28.5325 -109.741 42.2712 -12.6334 -0.559423 6.23664 -21.4443 -10.6517 -24.7489 -0.957386 -5.39797 -86.841 -50.1987 83.4977 -4.35791 7.37928 -29.2954 11.2683 22.8845 -14.6591 -1.24862 -0.0641593 -1.68255 -7.62 0.945628 -4.40927 -2.56573 1.28111 -2.57206 
-4.19463 97.5831 98.1858 -161.18 -82.9909 -160.747 -177.184 -0.882467 87.2276 -26.7304 21.4708 0.0424028 78.8917 8.74511 2.19964 6.97977 2.5691 0.553898 177.26 18.8488 88.8199 -34.8512 -5.57553 -3.59665 70.2055 -6.65015 -3.50481 17.7353 -0.392874 2.88367 -0.0939036 8.06895 -90.1623 10.7354 -0.261816 -0.29848 -0.935557 -0.274703 -0.28667 -23.4706 -0.160007 -0.363369 -3.45792 -0.160006 -0.363364 88.9432 -29.1512 -109.201 42.1572 -11.296 3.05245 7.13698 -20.5371 -10.6425 -24.1269 -0.761114 -6.20409 -87.4585 -45.1165 81.6547 -6.30422 3.34365 -35.2657 14.1763 20.5465 -18.1668 0.537477 -0.0579688 -2.96984 -7.59762 1.13235 -6.68348 -2.67694 1.62176 -0.0388594 
-5.70257 97.025 104.373 -177.096 -82.8809 -176.009 -175.048 -6.07936 91.03 -24.7856 25.4353 -0.609294 80.9334 9.87722 1.10387 9.4927 -0.791742 3.63036 175.408 17.0194 90.5835 -14.58 -10.6594 -1.5108 64.2567 -3.88123 -2.16273 21.5442 -1.22104 3.95109 -0.431575 8.12495 -90.2729 10.6218 -0.985036 -0.453569 -1.04887 -1.00405 -0.409779 -23.5856 -0.803188 -0.728655 -3.57293 -0.803185 -0.728651 88.8904 -30.3787 -108.794 41.5201 -10.5223 5.74303 6.60329 -21.0353 -10.3066 -24.1205 -0.703416 -6.68455 -88.0737 -43.5812 80.3623 -7.02643 -0.933293 -40.2589 17.6282 20.242 -22.7888 3.72338 -0.0961737 -4.4866 -7.19798 1.3353 -8.42603 -3.19243 1.96626 1.63482 
-7.31798 95.5545 111.248 -177.871 -82.3538 -176.041 -172.274 -11.6945 94.5686 -23.7622 27.8558 -1.75506 84.3566 11.7907 1.19196 10.5684 -0.204589 2.89406 175.651 17.6473 93.1835 -8.17055 -11.2941 -0.883705 64.6034 -3.34814 -2.17807 22.2607 -1.34406 4.10145 -0.59073 8.16535 -90.3401 10.5398 -1.33281 -0.556638 -1.13057 -1.356 -0.497433 -23.6688 -1.1039 -0.931487 -3.65617 -1.1039 -0.931495 88.7147 -32.5696 -108.263 40.2572 -10.1447 7.00475 7.18489 -21.3954 -9.64891 -22.9911 -0.761952 -6.49409 -88.1724 -43.7114 80.2288 -10.4476 -4.73085 -43.4054 22.0916 20.2947 -29.1281 4.39828 -0.163842 -5.61434 -7.14267 1.76803 -9.60503 -3.34261 2.47756 2.67674 
-8.98323 93.9241 119.138 -179.914 -81.9296 -176.71 -168.843 -17.0144 99.5147 -23.37 29.2248 -2.27042 87.4948 13.2134 0.433014 8.67391 0.757961 2.12681 176.871 16.1664 95.761 -9.21388 -11.376 -0.33775 62.2763 -2.67899 -1.52951 22.9451 -0.783294 2.85524 -0.763768 8.12142 -90.5198 10.6242 -1.7602 -0.873731 -1.04578 -1.79694 -0.79541 -23.5853 -1.41624 -1.36239 -3.57266 -1.41625 -1.36239 88.8641 -33.257 -107.714 40.4566 -8.03575 8.24905 6.6031 -22.3499 -9.25522 -20.5421 -0.703291 -7.32802 -87.966 -45.4575 80.9143 -14.4346 -5.51017 -43.8009 25.3579 20.4867 -34.209 4.19119 -0.24484 -7.06059 -7.16988 2.37116 -8.51338 -3.97903 2.98984 2.11153 
-10.3691 93.3049 127.683 -179.13 -81.4586 -174.488 -167.354 -22.7875 101.849 -21.6958 27.5369 -0.0282698 79.8908 9.58365 0.916624 28.3723 3.3565 -4.76388 176.964 20.2791 98.1082 -24.5064 -11.437 -0.216109 60.7739 -0.369495 -3.49975 20.1162 -1.35985 4.41024 -0.893984 7.99922 -90.7132 10.8642 -2.10953 -1.22061 -0.805511 -2.1612 -1.12655 -23.3453 -1.64521 -1.79819 -3.33267 -1.64521 -1.79819 89.2517 -33.3732 -106.941 41.3484 -6.82069 8.66438 6.95654 -21.8679 -8.45911 -19.4182 -0.639051 -7.77142 -88.0992 -47.6255 81.1298 -15.1156 -1.90386 -40.04 25.4353 21.8212 -34.4013 3.71904 -0.182203 -6.08294 -7.80734 2.79117 -6.86025 -4.87137 3.23157 2.17582 
